<svg width="220" height="53" viewBox="0 0 220 53" fill="none" xmlns="http://www.w3.org/2000/svg">
<path d="M29.6143 36.4287C29.6391 36.7796 29.6523 37.134 29.6523 37.4912C29.6523 45.6794 23.0144 52.3174 14.8262 52.3174C6.63794 52.3174 2.16484e-05 45.6794 0 37.4912C0 29.303 6.63793 22.665 14.8262 22.665C15.8878 22.665 16.7822 21.7391 16.5909 20.6948L14.3132 8.26135C13.5256 3.96179 16.8275 0 21.1986 0L22.6143 0C26.4803 0 29.6143 3.13401 29.6143 7V36.4287Z" fill="#F76B15"/>
<path d="M0 37.4912H8.82612C12.1398 37.4912 14.8261 40.1775 14.8261 43.4912V52.3173C6.63789 52.3173 0 45.6794 0 37.4912Z" fill="#572E1A"/>
<path d="M0 37.4912H8.82612C12.1398 37.4912 14.8261 40.1775 14.8261 43.4912V52.3173L0 37.4912Z" fill="#D04B00"/>
<path d="M49.7422 42.7686C44.2051 42.7686 40.8008 38.4619 40.8008 31.3252V31.3047C40.8008 24.1475 44.2051 19.8818 49.7422 19.8818C52.8594 19.8818 55.3203 21.4814 56.5098 24.1475H56.6328V12.7246H62.6211V42.3174H56.6328V38.5645H56.5098C55.3408 41.1689 52.9209 42.7686 49.7422 42.7686ZM51.752 37.8057C54.6641 37.8057 56.6533 35.3037 56.6533 31.3252V31.3047C56.6533 27.3467 54.6436 24.8447 51.752 24.8447C48.7783 24.8447 46.8916 27.2852 46.8916 31.3047V31.3252C46.8916 35.3242 48.7578 37.8057 51.752 37.8057ZM75.87 42.7686C69.1844 42.7686 64.9803 38.4824 64.9803 31.3252V31.2842C64.9803 24.209 69.287 19.8818 75.8495 19.8818C82.4325 19.8818 86.7596 24.168 86.7596 31.2842V31.3252C86.7596 38.5029 82.5145 42.7686 75.87 42.7686ZM75.8905 38.0723C78.8026 38.0723 80.6688 35.6113 80.6688 31.3252V31.2842C80.6688 27.0391 78.7616 24.5781 75.8495 24.5781C72.9579 24.5781 71.0711 27.0391 71.0711 31.2842V31.3252C71.0711 35.6318 72.9373 38.0723 75.8905 38.0723ZM99.0651 42.7686C92.3591 42.7686 88.2165 38.4004 88.2165 31.3047V31.2842C88.2165 24.25 92.4206 19.8818 99.0036 19.8818C104.971 19.8818 108.765 23.5527 108.991 28.3105V28.4541H103.433L103.392 28.2695C103.023 26.1777 101.567 24.5781 99.0856 24.5781C96.153 24.5781 94.3073 27.1006 94.3073 31.3047V31.3252C94.3073 35.6318 96.153 38.0723 99.1061 38.0723C101.506 38.0723 103.003 36.5957 103.413 34.3809L103.433 34.1963H109.011V34.3193C108.724 39.1182 104.93 42.7686 99.0651 42.7686ZM117.605 42.666C113.196 42.666 110.222 39.8975 110.222 36.0215V35.9805C110.222 31.9814 113.319 29.6436 118.774 29.2949L124.209 28.9668V27.6133C124.209 25.665 122.937 24.4551 120.599 24.4551C118.364 24.4551 117.01 25.501 116.723 26.916L116.682 27.1006H111.207L111.227 26.8545C111.555 22.7939 115.042 19.8818 120.845 19.8818C126.526 19.8818 130.197 22.8145 130.197 27.2441V42.3174H124.209V39.0361H124.085C122.834 41.292 120.497 42.666 117.605 42.666ZM116.149 35.7139C116.149 37.334 117.482 38.2979 119.553 38.2979C122.24 38.2979 124.209 36.5752 124.209 34.2783V32.6992L119.676 32.9863C117.359 33.1299 116.149 34.1143 116.149 35.6729V35.7139ZM133.233 49.4951V20.333H139.221V24.168H139.365C140.554 21.502 142.953 19.8818 146.071 19.8818C151.649 19.8818 155.053 24.1475 155.053 31.3047V31.3252C155.053 38.4619 151.649 42.7686 146.153 42.7686C143.015 42.7686 140.534 41.1689 139.344 38.5645H139.221V49.4951H133.233ZM144.102 37.8057C147.076 37.8057 148.962 35.3242 148.962 31.3252V31.3047C148.962 27.2852 147.076 24.8447 144.102 24.8447C141.19 24.8447 139.201 27.3467 139.201 31.3252V31.3457C139.201 35.3037 141.19 37.8057 144.102 37.8057ZM167.338 42.7686C160.612 42.7686 156.53 38.4004 156.53 31.3662V31.3457C156.53 24.3525 160.653 19.8818 167.092 19.8818C173.531 19.8818 177.571 24.25 177.571 30.8945V32.7402H162.437C162.498 36.2471 164.405 38.2979 167.461 38.2979C169.922 38.2979 171.419 36.9443 171.85 35.7139L171.891 35.5908H177.387L177.325 35.8164C176.649 39.0566 173.613 42.7686 167.338 42.7686ZM167.195 24.3525C164.734 24.3525 162.888 25.9932 162.498 28.9668H171.829C171.46 25.9316 169.676 24.3525 167.195 24.3525ZM179.972 42.3174V12.7246H185.96V42.3174H179.972ZM189.304 42.3174V12.7246H195.292V42.3174H189.304ZM205.034 42.666C200.625 42.666 197.651 39.8975 197.651 36.0215V35.9805C197.651 31.9814 200.748 29.6436 206.203 29.2949L211.637 28.9668V27.6133C211.637 25.665 210.366 24.4551 208.028 24.4551C205.793 24.4551 204.439 25.501 204.152 26.916L204.111 27.1006H198.635L198.656 26.8545C198.984 22.7939 202.47 19.8818 208.274 19.8818C213.955 19.8818 217.626 22.8145 217.626 27.2441V42.3174H211.637V39.0361H211.514C210.263 41.292 207.926 42.666 205.034 42.666ZM203.578 35.7139C203.578 37.334 204.911 38.2979 206.982 38.2979C209.669 38.2979 211.637 36.5752 211.637 34.2783V32.6992L207.105 32.9863C204.788 33.1299 203.578 34.1143 203.578 35.6729V35.7139Z" fill="#EEEEEE"/>
</svg>
